HIERARCHY
ROOT Hips
{
	OFFSET 0.00000 0.00000 0.00000
	CHANNELS 6 Xposition Yposition Zposition Zrotation Yrotation Xrotation 
	JOINT LHipJoint
	{
		OFFSET 0 0 0
		CHANNELS 3 Zrotation Yrotation Xrotation
		JOINT LeftUpLeg
		{
			OFFSET 1.58895 -1.83665 0.71753
			CHANNELS 3 Zrotation Yrotation Xrotation
			JOINT LeftLeg
			{
				OFFSET 2.50528 -6.88321 0.00000
				CHANNELS 3 Zrotation Yrotation Xrotation
				JOINT LeftFoot
				{
					OFFSET 2.63244 -7.23257 0.00000
					CHANNELS 3 Zrotation Yrotation Xrotation
					JOINT LeftToeBase
					{
						OFFSET 0.23691 -0.65090 1.72750
						CHANNELS 3 Zrotation Yrotation Xrotation
						End Site
						{
							OFFSET 0.00000 -0.00000 0.92561
						}
					}
				}
			}
		}
	}
	JOINT RHipJoint
	{
		OFFSET 0 0 0
		CHANNELS 3 Zrotation Yrotation Xrotation
		JOINT RightUpLeg
		{
			OFFSET -1.51435 -1.83665 0.71753
			CHANNELS 3 Zrotation Yrotation Xrotation
			JOINT RightLeg
			{
				OFFSET -2.54551 -6.99375 0.00000
				CHANNELS 3 Zrotation Yrotation Xrotation
				JOINT RightFoot
				{
					OFFSET -2.66027 -7.30903 0.00000
					CHANNELS 3 Zrotation Yrotation Xrotation
					JOINT RightToeBase
					{
						OFFSET -0.22981 -0.63138 2.03959
						CHANNELS 3 Zrotation Yrotation Xrotation
						End Site
						{
							OFFSET -0.00000 -0.00000 1.07060
						}
					}
				}
			}
		}
	}
	JOINT LowerBack
	{
		OFFSET 0 0 0
		CHANNELS 3 Zrotation Yrotation Xrotation
		JOINT Spine
		{
			OFFSET -0.02651 1.86275 -0.11152
			CHANNELS 3 Zrotation Yrotation Xrotation
			JOINT Spine1
			{
				OFFSET 0.01019 1.86224 0.04087
				CHANNELS 3 Zrotation Yrotation Xrotation
				JOINT Neck
				{
					OFFSET 0 0 0
					CHANNELS 3 Zrotation Yrotation Xrotation
					JOINT Neck1
					{
						OFFSET -0.01926 1.80512 0.08867
						CHANNELS 3 Zrotation Yrotation Xrotation
						JOINT Head
						{
							OFFSET 0.05516 1.76451 -0.38475
							CHANNELS 3 Zrotation Yrotation Xrotation
							End Site
							{
								OFFSET 0.01592 1.82587 -0.14001
							}
						}
					}
				}
				JOINT LeftShoulder
				{
					OFFSET 0 0 0
					CHANNELS 3 Zrotation Yrotation Xrotation
					JOINT LeftArm
					{
						OFFSET 3.47116 1.51376 0.14491
						CHANNELS 3 Zrotation Yrotation Xrotation
						JOINT LeftForeArm
						{
							OFFSET 4.78095 -0.00000 0.00000
							CHANNELS 3 Zrotation Yrotation Xrotation
							JOINT LeftHand
							{
								OFFSET 3.58615 -0.00000 -0.00000
								CHANNELS 3 Zrotation Yrotation Xrotation
								JOINT LeftFingerBase
								{
									OFFSET 0 0 0
									CHANNELS 3 Zrotation Yrotation Xrotation
									JOINT LeftHandIndex1
									{
										OFFSET 0.65981 -0.00000 0.00000
										CHANNELS 3 Zrotation Yrotation Xrotation
										End Site
										{
											OFFSET 0.53196 -0.00000 0.00000
										}
									}
								}
								JOINT LThumb
								{
									OFFSET 0 0 0
									CHANNELS 3 Zrotation Yrotation Xrotation
									End Site
									{
										OFFSET 0.54008 -0.00000 0.54008
									}
								}
							}
						}
					}
				}
				JOINT RightShoulder
				{
					OFFSET 0 0 0
					CHANNELS 3 Zrotation Yrotation Xrotation
					JOINT RightArm
					{
						OFFSET -3.31725 1.61216 0.35156
						CHANNELS 3 Zrotation Yrotation Xrotation
						JOINT RightForeArm
						{
							OFFSET -4.48913 -0.00000 0.00000
							CHANNELS 3 Zrotation Yrotation Xrotation
							JOINT RightHand
							{
								OFFSET -3.70510 -0.00000 0.00000
								CHANNELS 3 Zrotation Yrotation Xrotation
								JOINT RightFingerBase
								{
									OFFSET 0 0 0
									CHANNELS 3 Zrotation Yrotation Xrotation
									JOINT RightHandIndex1
									{
										OFFSET -0.44914 -0.00000 0.00000
										CHANNELS 3 Zrotation Yrotation Xrotation
										End Site
										{
											OFFSET -0.36211 -0.00000 0.00000
										}
									}
								}
								JOINT RThumb
								{
									OFFSET 0 0 0
									CHANNELS 3 Zrotation Yrotation Xrotation
									End Site
									{
										OFFSET -0.36763 -0.00000 0.36763
									}
								}
							}
						}
					}
				}
			}
		}
	}
}
MOTION
Frames: 5
Frame Time: .0083333
-0.4273 18.5482 4.6795 3.3254 -20.6250 2.9553 0.0000 0.0000 0.0000 -18.3417 7.4865 -17.4794 2.5006 9.8389 28.4567 1.3052 4.4306 -23.5866 8.3579 -16.3763 -53.8418 0.0000 0.0000 0.0000 8.9874 16.1592 -9.9135 -1.2306 -7.0353 19.8201 -0.7766 0.4611 -16.5047 -0.6169 5.0268 -13.9849 3.9219 -3.6881 38.1720 4.4925 -3.4975 16.8498 3.8120 -1.9632 -0.0573 -9.3685 -8.1015 -4.7244 2.9765 -11.2712 34.5997 1.3690 -5.7384 13.1156 -0.0000 -0.0000 0.0000 -99.5610 -26.0243 103.1135 153.9357 -37.2722 -111.0734 -0.0000 0.0000 -22.5848 53.8012 -34.7184 -37.8906 -7.1250 0.0000 -0.0000 10.7553 -18.8468 -13.8480 -0.0000 -0.0000 0.0000 83.4102 15.3062 106.4164 -162.0433 28.1016 -115.4712 0.0000 0.0000 13.7018 -48.0049 -29.7731 28.8806 7.1250 -0.0000 -0.0000 -26.4025 -68.8170 15.4707
-0.4259 18.5515 4.6903 3.4054 -20.6054 2.9818 0.0000 0.0000 0.0000 -18.4580 7.3889 -17.4106 2.4842 9.8092 28.3609 1.3025 4.5293 -23.6196 8.3479 -16.3693 -53.8063 0.0000 0.0000 0.0000 8.8835 16.1558 -9.9030 -1.2242 -7.0177 19.7678 -0.7756 0.3720 -16.5220 -0.6592 5.1931 -14.4600 3.9021 -3.6782 38.1957 4.4570 -3.4844 16.7898 3.7834 -1.9539 -0.1330 -10.1128 -8.3994 -4.4484 2.7073 -11.5002 34.6789 1.3645 -5.9547 13.1589 0.0000 -0.0000 0.0000 -99.6163 -26.1075 103.2078 153.8629 -37.3437 -111.0293 -0.0000 0.0000 -22.2469 54.6835 -34.4052 -38.5741 -7.1250 0.0000 -0.0000 11.3106 -19.0408 -14.6084 0.0000 -0.0000 0.0000 83.4571 15.3870 106.6192 -162.1390 27.9789 -115.5162 0.0000 0.0000 13.9710 -47.9161 -29.7087 28.7576 7.1250 -0.0000 -0.0000 -26.1991 -68.7159 15.2868
-0.4244 18.5541 4.6996 3.4292 -20.5712 3.0230 0.0000 0.0000 0.0000 -18.5065 7.2966 -17.3658 2.4719 9.7867 28.2887 1.2985 4.6001 -23.6275 8.3383 -16.3625 -53.7721 0.0000 0.0000 0.0000 8.8374 16.1575 -9.8751 -1.2142 -6.9899 19.6855 -0.7746 0.3131 -16.5312 -0.6646 5.2136 -14.5187 3.9169 -3.6897 38.3047 4.4352 -3.4760 16.6892 3.7579 -1.9458 -0.2790 -10.8352 -8.5690 -4.2511 2.3587 -11.5258 34.8176 1.3488 -6.0895 13.2227 0.0000 -0.0000 0.0000 -99.5959 -26.1672 103.3224 153.8313 -37.3748 -111.0101 -0.0000 0.0000 -22.4016 55.4728 -34.3934 -39.3881 -7.1250 0.0000 -0.0000 11.7094 -19.5212 -15.1996 0.0000 -0.0000 0.0000 83.5272 15.4123 106.8591 -162.1685 27.9409 -115.5300 0.0000 0.0000 14.1582 -47.8141 -29.5155 28.5283 7.1250 -0.0000 -0.0000 -25.9142 -68.4632 14.9667
-0.4234 18.5568 4.7091 3.3953 -20.5048 3.0748 0.0000 0.0000 0.0000 -18.4877 7.2407 -17.3494 2.4649 9.7739 28.2475 1.2934 4.6334 -23.6044 8.3540 -16.3736 -53.8281 0.0000 0.0000 0.0000 8.8530 16.1143 -9.8289 -1.2008 -6.9526 19.5749 -0.7733 0.3144 -16.5167 -0.6126 5.0094 -13.9354 3.9618 -3.6972 38.3594 4.4519 -3.4585 16.6304 3.7509 -1.9344 -0.3612 -11.4777 -8.5856 -4.0639 2.0832 -11.3661 34.8444 1.3757 -6.1281 13.2222 -0.0000 0.0000 0.0000 -99.5851 -26.1976 103.4788 153.8535 -37.3531 -111.0236 -0.0000 0.0000 -22.5801 56.0048 -34.3612 -39.9266 -7.1250 0.0000 -0.0000 11.9872 -19.8250 -15.6102 -0.0000 0.0000 0.0000 83.5589 15.4745 106.9773 -162.0902 28.0415 -115.4933 0.0000 0.0000 14.2826 -47.7677 -29.3732 28.3837 7.1250 -0.0000 -0.0000 -25.7621 -68.2858 14.7727
-0.4237 18.5589 4.7175 3.2999 -20.3969 3.1298 0.0000 0.0000 0.0000 -18.3950 7.2625 -17.3646 2.4618 9.7681 28.2289 1.2868 4.5817 -23.5227 8.3682 -16.3835 -53.8783 0.0000 0.0000 0.0000 8.9480 16.0412 -9.7441 -1.1842 -6.9060 19.4373 -0.7727 0.2854 -16.5198 -0.5658 4.8174 -13.3886 4.0272 -3.6708 38.3905 4.5263 -3.3947 16.6025 3.7770 -1.9029 -0.4017 -11.7640 -8.5805 -3.9639 1.8976 -11.2570 34.8556 1.3696 -6.1350 13.2111 0.0000 -0.0000 0.0000 -99.6549 -26.2434 103.6121 153.8993 -37.3080 -111.0514 -0.0000 0.0000 -22.6960 56.2812 -34.3998 -40.2488 -7.1250 0.0000 -0.0000 12.1107 -20.0457 -15.8041 0.0000 -0.0000 0.0000 83.5192 15.5642 106.9123 -161.9829 28.1791 -115.4427 0.0000 0.0000 14.4098 -47.8099 -29.3814 28.4252 7.1250 -0.0000 -0.0000 -25.8459 -68.3083 14.8362
